<svg xmlns="http://www.w3.org/2000/svg" viewBox="0 0 187.188 468.66">
  <title>loader_v3</title>
  <g opacity="0.9">
    <path d="M164.873,484.383h5.9a78.449,78.449,0,0,0,10.658-.732,17.078,17.078,0,0,0,14.149-12.4l7.205-26.191a6.957,6.957,0,0,0-6.705-8.8h-.2c.077-1.164.124-2.24.143-3.265h25.262a.279.279,0,0,0,.279-.278v-10.4H231.8a2.037,2.037,0,0,0,1.878-1.246.234.234,0,0,0,.164-.246V331.586a2.047,2.047,0,0,0-2.042-2.048H221.562v-9.107a.279.279,0,0,0-.279-.278h-8.862V271a.278.278,0,0,0-.278-.279H197.735v-22.77a7.419,7.419,0,0,0-7.411-7.41H180.138v-11.7H183.1v3.649a.825.825,0,0,0,.823.824h2.687a.828.828,0,0,0,.829-.824v-3.371h1.869v8.818a.278.278,0,0,0,.278.278h31.693a.279.279,0,0,0,.279-.278v-7.605H231.8a2.033,2.033,0,0,0,1.875-1.244.357.357,0,0,0,.035-.01.28.28,0,0,0,.132-.237V139.591a2.044,2.044,0,0,0-2.042-2.042H205.339a2.056,2.056,0,0,0-1.958,1.462h0v0a2.135,2.135,0,0,0-.083.577v38.4H192.861V142.022a.278.278,0,0,0-.278-.278h-5.14V103.608h1.63v1.564a.278.278,0,0,0,.278.278h3.232a.279.279,0,0,0,.278-.278V94.585h49.073a.277.277,0,0,0,.278-.278V40.144h2.9a.855.855,0,0,0,.857-.851V16.851A.855.855,0,0,0,245.11,16h-2.6a.855.855,0,0,0-.856.851v8.612h-26.4V16.8a.793.793,0,0,0-.789-.8h-1.975a.794.794,0,0,0-.79.8v8.667H191.593V16.8a.794.794,0,0,0-.79-.8h-1.975a.794.794,0,0,0-.79.8v8.667H167.933V16.8a.791.791,0,0,0-.785-.8h-1.975a.793.793,0,0,0-.789.8v8.667H140.762V16.8a.793.793,0,0,0-.789-.8H138a.794.794,0,0,0-.79.8v8.667H117.1V16.8a.794.794,0,0,0-.79-.8h-1.969a.794.794,0,0,0-.79.8v8.667H93.448V16.8a.794.794,0,0,0-.79-.8H90.683a.794.794,0,0,0-.79.8v8.667H63.34V16.851A.855.855,0,0,0,62.484,16h-2.6a.855.855,0,0,0-.857.851V39.293a.855.855,0,0,0,.857.851h2.9V94.307a.277.277,0,0,0,.278.278h47.632v10.587a.278.278,0,0,0,.278.278H114.2a.278.278,0,0,0,.278-.278v-1.564h1.485v38.136H111.45a.277.277,0,0,0-.278.278v35.971H100.736v-38.4a2.1,2.1,0,0,0-.084-.577v0h0a2.056,2.056,0,0,0-1.958-1.462H72.23a2.044,2.044,0,0,0-2.042,2.042v2.454a.216.216,0,0,0,0,.027v4.15a.256.256,0,0,0,0,.027v4.108a.238.238,0,0,0,0,.026v4.145c0,.009,0,.017,0,.027v4.107a.216.216,0,0,0,0,.027v4.144a.216.216,0,0,0,0,.027v5.8a.274.274,0,0,0,0,.028v4.528c0,.009,0,.017,0,.027v5.2c0,.011,0,.022,0,.033V183a.238.238,0,0,0,0,.026v3.354a.268.268,0,0,0,0,.03v4.528a.2.2,0,0,0,0,.026v4.924a.293.293,0,0,0,0,.029v4.529a.238.238,0,0,0,0,.026v5.5a.293.293,0,0,0,0,.029v4.523a.238.238,0,0,0,0,.026v5.8a.293.293,0,0,0,0,.029v4.15a.2.2,0,0,0,0,.026v4.1a.25.25,0,0,0,0,.029v1.218a.238.238,0,0,0,0,.026v2.906a.276.276,0,0,0,.117.243.3.3,0,0,0,.061.022,2.021,2.021,0,0,0,1.864,1.226H82.472v7.605a.278.278,0,0,0,.278.278h31.693a.278.278,0,0,0,.278-.278v-8.818h1.246v3.371a.825.825,0,0,0,.824.824h2.687a.825.825,0,0,0,.823-.824V228.84H123.9v11.7H113.709a7.418,7.418,0,0,0-7.41,7.41v22.77H91.885a.279.279,0,0,0-.279.279v6.736H81.421a.279.279,0,0,0-.279.279v31.626a.278.278,0,0,0,.279.278H91.606v10.236H82.75a.278.278,0,0,0-.278.278v9.107H72.23a2.047,2.047,0,0,0-2.042,2.048v89.243c0,.086.081.158.148.21l.007,0a2.023,2.023,0,0,0,1.887,1.279H82.472v10.4a.278.278,0,0,0,.278.278h25.27c.019,1.088.067,2.182.142,3.265h-.205A6.963,6.963,0,0,0,101,443.2a7.015,7.015,0,0,0,.253,1.863l7.2,26.191a17.068,17.068,0,0,0,14.149,12.4,78.409,78.409,0,0,0,10.653.732h.068a.269.269,0,0,0,.121.027h31.315A.249.249,0,0,0,164.873,484.383Zm15.265-256.1V212.457H183.1v15.827Zm-22.831-28.239a.22.22,0,0,1,.217-.222h2.014a.219.219,0,0,1,.217.222v19.827a.22.22,0,0,1-.217.223h-2.014a.221.221,0,0,1-.217-.223Zm-.556,11.321H154.47v-4.078h2.281Zm-2.838,2.893a.608.608,0,0,1-.606.607h-2.581a.608.608,0,0,1-.606-.607V203.072h.751v8.311a1.084,1.084,0,0,0,.056.342,1.14,1.14,0,0,0,2.177.007,1.107,1.107,0,0,0,.059-.349v-8.311h.75Zm-7.187,5.613a.22.22,0,0,1-.217.223H144.5a.22.22,0,0,1-.222-.223V200.045a.22.22,0,0,1,.222-.222h2.014a.219.219,0,0,1,.217.222Zm.556-12.584h2.281v4.078h-2.281Zm4.145-35.965h1.179v40.06a.587.587,0,0,1-1.149.174.559.559,0,0,1-.03-.174Zm2.765,31.192h-1.029V171.266a.863.863,0,0,0,.567-.817v-6.642a.874.874,0,0,0-.873-.873h-1.681a.874.874,0,0,0-.873.873v6.642a.851.851,0,0,0,.568.809v31.257h-2.632a.206.206,0,0,1-.2-.206V148.642a.206.206,0,0,1,.2-.206h7.549a.206.206,0,0,1,.206.206v53.667a.206.206,0,0,1-.206.206Zm-3.031-31.748a.319.319,0,0,1-.284-.209v0a.318.318,0,0,1-.017-.106v-6.642a.318.318,0,0,1,.317-.317h1.681a.318.318,0,0,1,.317.317v6.642a.316.316,0,0,1-.018.109.323.323,0,0,1-.3.209ZM120.3,152.219h27.182v3.727H122.8a.278.278,0,0,0-.278.278V211.9H120.3Zm-4.334-55.314v1.2h-1.485V94.585h7.56v3.521H120.3v-1.2a.825.825,0,0,0-.823-.824h-2.687A.825.825,0,0,0,115.967,96.905Zm9.308,7.988H122.6V82.34h2.676Zm-3.233-6.23v4.389H120.3V98.663Zm0,4.945v1.564a.279.279,0,0,0,.278.278h3.233a.278.278,0,0,0,.278-.278V94.585h19.326v10.587a.278.278,0,0,0,.278.278h2.882a.278.278,0,0,0,.278-.278v-1.564h.262v2.554a1.086,1.086,0,0,0,1.085,1.085h.033v12.024a1.146,1.146,0,0,0-1.118,1.144v2.5h-.484V112.7a.613.613,0,0,0-.612-.612h-2.926a.613.613,0,0,0-.612.612v6.153h-.807v-2.264a.972.972,0,0,0-.968-.974h-1.981a.972.972,0,0,0-.968.974v16.923H120.3V103.608Zm67.031-5.5h-1.63v-1.2a.828.828,0,0,0-.829-.824h-2.687a.825.825,0,0,0-.823.824v1.2h-1.592V94.585h7.561Zm-7.561.557H183.1v4.389h-1.592Zm-.556,6.23H178.28V82.34h2.676Zm-3.232.279a.278.278,0,0,0,.278.278h3.232a.278.278,0,0,0,.278-.278v-1.564H183.1v29.908H164.533V116.593a.972.972,0,0,0-.967-.974h-1.981a.972.972,0,0,0-.968.974v2.264h-.806V112.7a.613.613,0,0,0-.613-.612h-2.926a.612.612,0,0,0-.611.612v10.208h-.451v-2.5a1.148,1.148,0,0,0-1.146-1.147h-.006V107.247h.067a1.087,1.087,0,0,0,1.085-1.085v-2.554h.183v1.564a.279.279,0,0,0,.278.278h2.882a.278.278,0,0,0,.278-.278V94.585h18.893ZM181.512,211.9V156.224a.278.278,0,0,0-.278-.278H156.551v-3.727H183.1V211.9Zm-1.374-33.351h.818v8.9h-.818Zm-.278-8.177H156.551V156.5h24.405v21.49h-.818V170.65A.277.277,0,0,0,179.86,170.372Zm-23.309-18.709v-3.021a.763.763,0,0,0-.763-.762h-1.73V134.072h6.559v.918a.972.972,0,0,0,.968.974h1.981a.972.972,0,0,0,.967-.974v-.918H183.1v17.591Zm-6.02-3.783V132.058H153.5V147.88Zm-10.475-31.287a.414.414,0,0,1,.411-.418h1.981a.414.414,0,0,1,.411.418v18.4a.414.414,0,0,1-.411.417h-1.981a.414.414,0,0,1-.411-.417Zm23.921,18.4a.415.415,0,0,1-.411.417h-1.981a.415.415,0,0,1-.412-.417v-18.4a.415.415,0,0,1,.412-.418h1.981a.415.415,0,0,1,.411.418Zm-9.919-2.932h.006a1.147,1.147,0,0,0,1.146-1.146v-2.5h.451v3.032a.612.612,0,0,0,.611.612H159.2a.613.613,0,0,0,.613-.612v-7.087h.806v9.157h-6.559Zm6.559-8.255h-.806v-4.39h.806Zm-1.363,7.643a.057.057,0,0,1-.056.056h-2.926a.057.057,0,0,1-.055-.056V112.7a.057.057,0,0,1,.055-.056H159.2a.057.057,0,0,1,.056.056Zm-3.593-3.588h-.451v-4.389h.451Zm-1.008,3.054a.59.59,0,0,1-.589.59H150a.591.591,0,0,1-.59-.59v-10.5a.59.59,0,0,1,.59-.59h4.061a.59.59,0,0,1,.589.59Zm-5.8-3.054h-.484v-4.389h.484Zm-1.041,3.588a.056.056,0,0,1-.055.056h-2.926a.057.057,0,0,1-.056-.056V112.7a.057.057,0,0,1,.056-.056h2.926a.056.056,0,0,1,.055.056Zm-3.593-7.643h-.807v-4.39h.807Zm-.807.556h.807v7.087a.612.612,0,0,0,.612.612h2.926a.613.613,0,0,0,.612-.612v-3.032h.484v2.5a1.145,1.145,0,0,0,1.118,1.143v1.461h-6.559Zm7.115-5.091V107.247H153.5v12.021ZM148.6,98.663h.262v4.389H148.6Zm.818-1.5a.529.529,0,0,1,.529-.528h4.183a.528.528,0,0,1,.528.528v9a.528.528,0,0,1-.528.528h-4.183a.529.529,0,0,1-.529-.528Zm5.98,5.886h-.183V98.663h.183Zm2.882,1.841H155.95V87.82h2.325Zm-2.882-6.787h-.183v-.94a1.087,1.087,0,0,0-1.085-1.085h-4.183a1.086,1.086,0,0,0-1.085,1.085v.94H148.6V94.585h6.8Zm-7.354,6.787h-2.326V87.82h2.326Zm-8.54,29.179v.918a.972.972,0,0,0,.968.974h1.981a.972.972,0,0,0,.968-.974v-.918h6.559V147.88h-1.736a.76.76,0,0,0-.756.762v3.021H120.3V134.072ZM123.9,170.65v7.343h-.818V156.5h24.406v13.869h-23.31A.277.277,0,0,0,123.9,170.65Zm-.818,7.9h.818v8.9h-.818Zm0,33.351V188.007h.818V211.9Zm1.374-13.674v-27.3h23.032v27.3Zm32.1-27.3h23.031v27.3H156.551ZM180.138,198.5v-10.5h.818V211.9h-.818Zm6.476,34.252h-2.687a.267.267,0,0,1-.267-.267V96.905a.268.268,0,0,1,.267-.267h2.687a.273.273,0,0,1,.272.267V232.489A.273.273,0,0,1,186.614,232.756Zm7.26-24.7h-4.006v-8.139h31.137v9.558H194.152v-1.141A.279.279,0,0,0,193.874,208.056Zm-1.013-8.7V188.007H203.3v11.354Zm11.537,0c-.167-.083-.336-.169-.5-.255l-.04-.021v-2.307c1.751.9,3.52,1.767,5.283,2.583Zm6.07,0c-2.2-.994-4.424-2.072-6.614-3.206v-.971c2.952,1.518,5.927,2.914,8.872,4.177Zm11.094.278a.278.278,0,0,0-.279-.278h-7.147c-3.4-1.42-6.861-3.036-10.282-4.8v-4.932a130.4,130.4,0,0,0,29.435,11.04v4.983c-3.879-.928-7.821-2.084-11.727-3.443Zm11.727,16.389a121.232,121.232,0,0,1-11.727-3.443v-5.271a121.786,121.786,0,0,0,11.727,3.429ZM193.6,208.612v6.815h-3.727v-6.815Zm-4.283,7.093V221.4h-1.869v-8.94h1.869Zm-1.869,12.857v-6.609h1.869v6.609Zm2.425,5.964V215.984H193.6v18.542Zm0,3.132v-2.576h4.006a.279.279,0,0,0,.278-.278V210.031h26.853v27.627Zm43.421-13.325a121.342,121.342,0,0,1-11.727-3.442v-3.569a121.911,121.911,0,0,0,11.727,3.43Zm-1.486,5.442h-8.565c-.557-.186-1.118-.378-1.676-.577v-3.576c3.836,1.332,7.714,2.47,11.54,3.386A1.483,1.483,0,0,1,231.8,229.775Zm-10.241-4.74V222.7c3.906,1.352,7.847,2.506,11.727,3.429v2.36A121.359,121.359,0,0,1,221.562,225.035Zm11.727-.125v.646c-3.88-.928-7.822-2.088-11.727-3.447v-.631A122.093,122.093,0,0,0,233.289,224.91Zm-11.727-8.175v-2.35a121.9,121.9,0,0,0,11.727,3.435v2.362A121.21,121.21,0,0,1,221.562,216.735Zm11.727-.131v.647a121.6,121.6,0,0,1-11.727-3.453v-.626A121.688,121.688,0,0,0,233.289,216.6Zm-11.727-9.877v-2.345a121.618,121.618,0,0,0,11.727,3.435v2.357A121.293,121.293,0,0,1,221.562,206.727Zm11.727-.5v1.025a121.319,121.319,0,0,1-11.727-3.453v-1C225.469,204.143,229.411,205.3,233.289,206.223ZM203.854,189v-2.3c.833.431,1.685.861,2.547,1.28a128.951,128.951,0,0,0,26.888,9.753v2.363A129.96,129.96,0,0,1,203.854,189Zm29.435,7.137v1.025a128.4,128.4,0,0,1-26.643-9.684c-.946-.459-1.885-.931-2.792-1.4V185.1c1.992,1.025,3.985,1.993,5.932,2.878A127.535,127.535,0,0,0,233.289,196.137Zm-29.435-11.661v-4.384c3.046,1.43,6.136,2.791,9.2,4.044a193.7,193.7,0,0,0,20.239,7.011v4.414a127.147,127.147,0,0,1-23.273-8.086C208,186.555,205.923,185.546,203.854,184.476Zm9.407-.855c-3.13-1.282-6.294-2.675-9.407-4.141v-2.317c1.13.532,2.087.972,2.961,1.361,2.025.915,4.123,1.816,6.235,2.68a193.7,193.7,0,0,0,20.239,7.011v2.355A193.07,193.07,0,0,1,213.261,183.621Zm-9.407-11.533c10.332,3.443,20.232,7.175,29.435,11.1v2.854a193.153,193.153,0,0,1-20.029-6.947c-.861-.349-1.716-.71-2.576-1.077-2.344-1-4.64-2.029-6.83-3.064Zm0-9.829a130.256,130.256,0,0,1,29.435,11.131v4.668c-9.215-3.924-19.113-7.651-29.435-11.08Zm0-10.381A130.255,130.255,0,0,1,233.289,163v5.234a130.594,130.594,0,0,0-29.435-11.073Zm0-8.3A130.207,130.207,0,0,1,233.289,154.7v3.537a130.309,130.309,0,0,0-29.435-11.074Zm17.857-5.468c3.846,1.564,7.74,3.367,11.578,5.356v2.3a135.639,135.639,0,0,0-17.775-7.659Zm11.578,4.136v.592c-3.354-1.731-6.75-3.317-10.118-4.728h1.437C227.478,139.351,230.4,140.742,233.289,142.241Zm0-2.65v2.027c-2.436-1.256-4.887-2.432-7.313-3.513H231.8A1.488,1.488,0,0,1,233.289,139.591Zm-27.95-1.486h8.443a134.341,134.341,0,0,1,19.507,8.288v3.535A130.208,130.208,0,0,0,204.03,138.9,1.5,1.5,0,0,1,205.339,138.1Zm-1.485,1.962v-.476a1.323,1.323,0,0,1,.01-.164,129.809,129.809,0,0,1,29.425,11.125v.592A130.645,130.645,0,0,0,203.854,140.067Zm0,2.931v-2.357a130.246,130.246,0,0,1,29.435,11.13v2.3A130.626,130.626,0,0,0,203.854,143Zm0,5.374v-.641a130.026,130.026,0,0,1,29.435,11.127v.592A130.619,130.619,0,0,0,203.854,148.372Zm0,2.932v-2.357a130.281,130.281,0,0,1,29.435,11.13v2.3A130.626,130.626,0,0,0,203.854,151.3Zm0,7.455v-1.025a130.259,130.259,0,0,1,29.435,11.126v.97A130.315,130.315,0,0,0,203.854,158.759Zm0,2.926v-2.352a129.971,129.971,0,0,1,29.435,11.125v2.3A130.681,130.681,0,0,0,203.854,161.685Zm0,6.884v-1c10.325,3.435,20.225,7.167,29.435,11.1v.992C224.1,175.738,214.2,172.01,203.854,168.569Zm0,2.931v-2.343c10.348,3.448,20.248,7.181,29.435,11.1v2.321C224.081,178.663,214.182,174.937,203.854,171.5Zm0,5.048v-.981c2.124,1,4.346,2,6.611,2.96.864.368,1.722.73,2.585,1.081a193.936,193.936,0,0,0,20.239,7.012v1.018a193.07,193.07,0,0,1-20.028-6.949c-2.107-.861-4.2-1.76-6.218-2.672C206.1,177.594,205.106,177.139,203.854,176.548Zm-.556,2v8.9H192.861v-8.9ZM192.305,142.3v57.061H189.59a.277.277,0,0,0-.278.278V211.9h-1.869V142.3Zm-4.862-39.248V98.663h1.63v4.389Zm2.186,1.841V82.34h2.676v22.553ZM79.446,58.074h3.193V76.911H79.446Zm23.1,11.421H83.2V63.1h19.354ZM83.2,70.052h19.354v.956H83.2Zm19.91-11.978H106.3V76.911h-3.194ZM126.2,69.5H106.855V63.1H126.2Zm-19.349.557H126.2v.956H106.855ZM126.76,58.074h3.193V76.911H126.76Zm23.1,11.421H130.51V63.1h19.354Zm-19.354.557h19.354v.956H130.51Zm19.91-11.978h3.193V76.911H150.42Zm23.1,11.421H154.169V63.1h19.349Zm-19.349.557h19.349v.956H154.169Zm19.905-11.978h3.2V76.911h-3.2Zm23.1,11.421H177.83V63.1h19.348Zm-19.348.557h19.348v.956H177.83Zm19.905-11.978h3.192V76.911h-3.192ZM221.244,69.5h-19.76V63.1h19.76Zm-19.76.557h19.76v.956h-19.76ZM221.8,58.38h3.193V77.217H221.8Zm3.749,12.628v-.956h16.106v.956ZM241.656,69.5H225.55V63.1h16.106Zm3.755-42.2v12a.3.3,0,0,1-.3.3h-2.9v-12.3Zm-2.9-10.737h2.6a.3.3,0,0,1,.3.295v9.886h-3.2V16.851A.3.3,0,0,1,242.512,16.556Zm-.856,10.459V62.547h-1.964V26.019h1.964ZM212.488,16.556h1.975a.237.237,0,0,1,.233.24v9.941h-2.442V16.8A.238.238,0,0,1,212.488,16.556Zm-23.66,0H190.8a.238.238,0,0,1,.234.24v9.941h-2.443V16.8A.238.238,0,0,1,188.828,16.556Zm-23.655,0h1.975a.231.231,0,0,1,.228.24v9.941H164.94V16.8A.237.237,0,0,1,165.173,16.556Zm-27.175,0h1.975a.237.237,0,0,1,.233.24v9.941h-2.442V16.8A.238.238,0,0,1,138,16.556Zm-23.655,0h1.969a.238.238,0,0,1,.234.24v9.941h-2.437V16.8A.238.238,0,0,1,114.343,16.556Zm-23.66,0h1.975a.238.238,0,0,1,.234.24v9.941H90.449V16.8A.238.238,0,0,1,90.683,16.556Zm-.79,10.459V39.354a.791.791,0,0,0,.79.79h1.975a.791.791,0,0,0,.79-.79V26.019h20.105V39.354a.791.791,0,0,0,.79.79h1.969a.791.791,0,0,0,.79-.79V26.019h20.106V39.354a.791.791,0,0,0,.79.79h1.975a.791.791,0,0,0,.789-.79V26.019h23.622V39.354a.791.791,0,0,0,.789.79h1.975a.789.789,0,0,0,.785-.79V26.019h20.105V39.354a.791.791,0,0,0,.79.79H190.8a.791.791,0,0,0,.79-.79V26.019H211.7V39.354a.791.791,0,0,0,.79.79h1.975a.791.791,0,0,0,.789-.79V26.019h23.883V62.547H225.55V54.814a.277.277,0,0,0-.278-.278h-3.75a.278.278,0,0,0-.278.278v7.733h-19.76V54.508a.278.278,0,0,0-.278-.278h-3.75a.278.278,0,0,0-.278.278v8.039H177.83V54.508a.278.278,0,0,0-.279-.278H173.8a.278.278,0,0,0-.278.278v8.039H154.169V54.508a.277.277,0,0,0-.278-.278h-3.749a.277.277,0,0,0-.278.278v8.039H130.51V54.508a.278.278,0,0,0-.278-.278h-3.75a.277.277,0,0,0-.278.278v8.039H106.855V54.508a.277.277,0,0,0-.278-.278h-3.75a.277.277,0,0,0-.278.278v8.039H83.2V54.508a.278.278,0,0,0-.278-.278H79.168a.278.278,0,0,0-.279.278v8.039H65.861V26.019H89.893Zm.556.278h2.443V39.354a.232.232,0,0,1-.234.234H90.683a.232.232,0,0,1-.234-.234Zm23.66,0h2.437V39.354a.232.232,0,0,1-.234.234h-1.969a.232.232,0,0,1-.234-.234Zm23.655,0h2.442V39.354a.232.232,0,0,1-.233.234H138a.232.232,0,0,1-.234-.234Zm27.176,0h2.436V39.354a.229.229,0,0,1-.228.234h-1.975a.231.231,0,0,1-.233-.234Zm23.654,0h2.443V39.354a.232.232,0,0,1-.234.234h-1.975a.232.232,0,0,1-.234-.234Zm23.66,0H214.7V39.354a.232.232,0,0,1-.233.234h-1.975a.232.232,0,0,1-.234-.234Zm12.74,30.531H221.8V55.092h3.193Zm-24.067-.306h-3.192V54.786h3.192Zm-23.654,0h-3.2V54.786h3.2Zm-23.66,0H150.42V54.786h3.193Zm-23.66,0H126.76V54.786h3.193Zm-23.654,0h-3.194V54.786H106.3Zm-23.66,0H79.446V54.786h3.193ZM59.886,16.556h2.6a.3.3,0,0,1,.3.295v9.886h-3.2V16.851A.3.3,0,0,1,59.886,16.556Zm3.454,9.463H65.3V62.547H63.34V26.019ZM59.886,39.588a.3.3,0,0,1-.3-.3v-12h3.2v12.3ZM63.34,63.1H78.889V69.5H63.34Zm0,6.949H78.889v.956H63.34Zm0,23.977V71.565H78.889v5.624a.278.278,0,0,0,.279.278h3.749a.278.278,0,0,0,.278-.278V71.565h19.354v5.624a.277.277,0,0,0,.278.278h3.75a.277.277,0,0,0,.278-.278V71.565H126.2v5.624a.277.277,0,0,0,.278.278h3.75a.278.278,0,0,0,.278-.278V71.565h19.354v5.624a.277.277,0,0,0,.278.278h3.749a.277.277,0,0,0,.278-.278V71.565h19.349v5.624a.278.278,0,0,0,.278.278h3.755a.278.278,0,0,0,.279-.278V71.565h19.348v5.624a.278.278,0,0,0,.278.278h3.75a.278.278,0,0,0,.278-.278V71.565h19.76V77.5a.278.278,0,0,0,.278.278h3.75a.277.277,0,0,0,.278-.278v-5.93h16.106V94.029h-48.8V82.062a.278.278,0,0,0-.278-.278h-3.232a.277.277,0,0,0-.278.278V94.029h-7.561V82.062a.277.277,0,0,0-.278-.278H178a.277.277,0,0,0-.278.278V94.029H158.831V87.542a.277.277,0,0,0-.278-.278h-2.882a.278.278,0,0,0-.278.278v6.487h-6.8V87.542a.277.277,0,0,0-.278-.278h-2.882a.277.277,0,0,0-.278.278v6.487H125.831V82.062a.277.277,0,0,0-.278-.278H122.32a.278.278,0,0,0-.278.278V94.029h-7.56V82.062a.277.277,0,0,0-.278-.278h-3.232a.277.277,0,0,0-.278.278V94.029Zm47.91,10.864V82.34h2.676v22.553Zm3.232-1.841V98.663h1.485v4.389Zm1.485,39.248v69.6h-1.246V199.639a.277.277,0,0,0-.278-.278h-2.715V142.3Zm-1.246,73.405v-3.248h1.246v8.94h-1.246Zm-4.283-.278v-6.815h3.727v6.815Zm-27.41-15.51h31.137v8.139H110.16a.278.278,0,0,0-.278.278v1.141H83.028Zm17.708-10.748v-1.162h10.436v11.354H100.736V189.169Zm-1.1,10.192H94.9c1.761-.815,3.531-1.68,5.282-2.583v2.307l-.035.018C99.974,199.191,99.8,199.278,99.634,199.361Zm.545-3.206c-2.19,1.134-4.415,2.213-6.614,3.206H91.308c2.945-1.264,5.921-2.66,8.871-4.177Zm10.993-17.606v8.9H100.736v-8.9Zm-40.427-5.165a130.481,130.481,0,0,1,29.434-11.125v4.719c-10.3,3.422-20.2,7.149-29.434,11.08Zm0-10.386a130.455,130.455,0,0,1,29.434-11.12v5.286a130.813,130.813,0,0,0-29.434,11.068Zm0-8.306a130.421,130.421,0,0,1,29.434-11.119v3.588a130.57,130.57,0,0,0-29.434,11.068ZM100,138.9a130.53,130.53,0,0,0-29.258,11.025v-3.536A135.153,135.153,0,0,1,90.251,138.1h8.443A1.494,1.494,0,0,1,100,138.9ZM72.23,138.1h5.827c-2.388,1.065-4.838,2.239-7.312,3.508v-2.022A1.487,1.487,0,0,1,72.23,138.1Zm-1.491,4.133c2.949-1.52,5.87-2.91,8.686-4.133h1.437c-3.357,1.407-6.755,2.992-10.123,4.726Zm0,1.221c3.855-1.994,7.751-3.8,11.583-5.354h6.2a136.584,136.584,0,0,0-17.78,7.657Zm0,7.09a130.149,130.149,0,0,1,29.43-11.122,1.323,1.323,0,0,1,.01.164v.476a130.849,130.849,0,0,0-29.44,11.074Zm0,1.22a130.406,130.406,0,0,1,29.44-11.128V143a130.883,130.883,0,0,0-29.44,11.07Zm0,7.086a130.247,130.247,0,0,1,29.44-11.124v.641a130.823,130.823,0,0,0-29.44,11.075Zm0,1.219a130.485,130.485,0,0,1,29.44-11.127V151.3a130.861,130.861,0,0,0-29.44,11.069Zm0,8.784a130.485,130.485,0,0,1,29.44-11.124v1.025a130.571,130.571,0,0,0-29.44,11.069Zm0,1.6a130.192,130.192,0,0,1,29.44-11.122v2.352a130.823,130.823,0,0,0-29.44,11.075Zm0,8.208c9.234-3.938,19.135-7.671,29.44-11.1v1c-10.324,3.435-20.225,7.163-29.44,11.086Zm0,1.6c9.211-3.929,19.113-7.663,29.44-11.1V171.5c-10.307,3.43-20.209,7.157-29.44,11.081Zm29.44-8.173v2.863c-2.19,1.035-4.485,2.065-6.829,3.064-1.175.5-2.248.946-3.284,1.361a190.9,190.9,0,0,1-19.321,6.663v-2.854C79.97,179.255,89.87,175.524,100.179,172.088Zm-29.44,14.533a191.313,191.313,0,0,0,19.536-6.729c1.037-.416,2.115-.862,3.293-1.365,2.265-.965,4.487-1.96,6.611-2.96v.981c-1.253.592-2.242,1.047-3.191,1.47-2.217,1-4.546,2-6.922,2.955a191.187,191.187,0,0,1-19.327,6.667Zm0,1.6a191.7,191.7,0,0,0,19.536-6.728c2.383-.962,4.718-1.96,6.941-2.964.887-.4,1.822-.826,2.963-1.362v2.317c-3.4,1.6-6.8,3.091-10.112,4.425a192.614,192.614,0,0,1-19.328,6.666Zm19.536-3.8c3.243-1.307,6.574-2.765,9.9-4.329v4.384c-2.069,1.07-4.141,2.079-6.163,3a127.123,127.123,0,0,1-23.271,8.085v-4.414A193.221,193.221,0,0,0,90.275,184.421ZM70.739,196.139a127.686,127.686,0,0,0,23.508-8.157c1.946-.886,3.94-1.854,5.932-2.879v.971c-.9.469-1.839.941-2.792,1.405a129.122,129.122,0,0,1-26.648,9.684Zm0,1.593a129.634,129.634,0,0,0,26.892-9.753q1.3-.635,2.548-1.281V189a129.918,129.918,0,0,1-29.44,11.1Zm29.44-8.108v4.932c-3.419,1.767-6.877,3.384-10.282,4.8H82.75a.277.277,0,0,0-.278.278V202.2a121.349,121.349,0,0,1-11.727,3.443v-4.983A130.375,130.375,0,0,0,100.179,189.624Zm-29.44,16.6a121.475,121.475,0,0,0,11.733-3.433v1a121.237,121.237,0,0,1-11.733,3.454Zm0,1.595a121.828,121.828,0,0,0,11.733-3.437v2.345a121.212,121.212,0,0,1-11.733,3.448Zm11.733-.5v5.271a121.4,121.4,0,0,1-11.727,3.443v-5.285A121.869,121.869,0,0,0,82.472,207.314Zm-11.733,9.291a121.891,121.891,0,0,0,11.733-3.433v.626a121.8,121.8,0,0,1-11.733,3.454Zm0,1.216a122.105,122.105,0,0,0,11.733-3.436v2.35a121.419,121.419,0,0,1-11.733,3.449Zm11.733-.5v3.571q-.465.164-.93.323c-1.782.606-3.65,1.19-5.551,1.738-.627.183-1.254.355-1.88.527-1.075.289-2.182.57-3.366.856v-3.585A122.079,122.079,0,0,0,82.472,217.322Zm-11.733,7.589c1.243-.3,2.395-.591,3.517-.893.631-.173,1.261-.346,1.89-.529,1.909-.551,3.784-1.138,5.576-1.746.25-.086.5-.174.75-.261v.627a121.212,121.212,0,0,1-11.733,3.448Zm.006,1.214A121.869,121.869,0,0,0,82.472,222.7v2.334a121.414,121.414,0,0,1-11.727,3.456Zm10.051,3.65H72.23a1.471,1.471,0,0,1-1.3-.767c3.875-.933,7.752-2.072,11.538-3.391V229.2C81.914,229.4,81.353,229.589,80.8,229.775Zm29.364,5.307h4.005v2.576H83.028V210.031h26.854V234.8A.278.278,0,0,0,110.16,235.082Zm.278-.556V215.984h3.727v18.542Zm4.283-5.964v-6.609h1.246v6.609Zm4.757,4.194h-2.687a.267.267,0,0,1-.267-.267V96.905a.268.268,0,0,1,.267-.267h2.687a.268.268,0,0,1,.267.267V232.489A.267.267,0,0,1,119.478,232.756Zm.823-4.472V212.457H123.9v15.827Zm4.15,6.242V198.782h23.032v3.527a.76.76,0,0,0,.756.763h1.324v3.66h-2.281v-6.687a.777.777,0,0,0-.773-.779H144.5a.781.781,0,0,0-.779.779v19.827a.78.78,0,0,0,.779.779h2.014a.776.776,0,0,0,.773-.779v-7.949h2.281v2.336a1.165,1.165,0,0,0,1.163,1.163h2.581a1.165,1.165,0,0,0,1.163-1.163v-2.336h2.281v7.949a.777.777,0,0,0,.773.779h2.014a.777.777,0,0,0,.773-.779V200.045a.777.777,0,0,0-.773-.779h-2.014a.777.777,0,0,0-.773.779v6.687H154.47v-3.66h1.318a.764.764,0,0,0,.763-.763v-3.527h23.031v35.744Zm0,.556h55.131v5.457H124.451Zm-17.6,16.372v-3.5a6.861,6.861,0,0,1,6.854-6.853h76.615a6.861,6.861,0,0,1,6.854,6.853v3.5Zm25.858,224.172a18.28,18.28,0,0,1-17.6-12.408l-2.96-9.107a73.334,73.334,0,0,1-3.419-17.592c-.094-1.259-.15-2.54-.167-3.808-.01-.448-.016-.891-.016-1.334v-6.192a.412.412,0,0,1,.411-.411h86.524v6.6c0,.443,0,.885-.017,1.337-.016,1.187-.07,2.432-.166,3.806a73.867,73.867,0,0,1-3.425,17.591l-2.96,9.107a18.277,18.277,0,0,1-17.609,12.408l-19.294,0ZM196.03,432.44c.007-.356.013-.71.013-1.063V424.5a.277.277,0,0,0-.278-.278h-1.613V422.91h1.613a.277.277,0,0,0,.278-.278v-.311h24.962V432.44Zm-113-91.119H98.349v28.294a1.194,1.194,0,1,0,2.387,0V341.321H108v2.058a1.272,1.272,0,0,0,1.269,1.274h.618v2.47h-.618A1.27,1.27,0,0,0,108,348.392v73.372H83.028Zm15.877-28.333a.637.637,0,1,1,1.274,0v56.627a.641.641,0,0,1-.64.64.649.649,0,0,1-.634-.684Zm96.582,6.192v24.5a.417.417,0,0,1-.417.417H109.264a.716.716,0,0,1-.712-.718v-24.2Zm37.8,31.046c-3.877-2-7.818-3.816-11.727-5.386v-3.558c3.925,1.589,7.866,3.406,11.727,5.412Zm-12.284-8.9v80.443H196.043V348.1a.925.925,0,0,0-.2-.586.577.577,0,0,0-.089-.111.972.972,0,0,0-.681-.277h-.918v-2.47h.918a.973.973,0,0,0,.973-.973v-2.359Zm12.284,18.913c-3.863-2-7.8-3.811-11.727-5.391v-5.255c3.883,1.572,7.825,3.389,11.727,5.412Zm0,9.813c-3.827-1.627-7.768-3.22-11.727-4.739v-5.339c3.883,1.572,7.825,3.389,11.727,5.411Zm0,7.986c-3.945-1.129-7.886-2.4-11.727-3.77v-3.83c3.968,1.525,7.91,3.12,11.727,4.747Zm0,9.523a121.644,121.644,0,0,1-11.727-3.448v-4.733c3.858,1.377,7.8,2.641,11.727,3.761Zm0,10.08a121.108,121.108,0,0,1-11.727-3.442v-4.971a121.834,121.834,0,0,0,11.727,3.429Zm0,10.387c-3.879-.928-7.82-2.084-11.727-3.443V399.3a121.535,121.535,0,0,0,11.727,3.435Zm0,8.306a121.4,121.4,0,0,1-11.727-3.449v-3.569a121.841,121.841,0,0,0,11.727,3.43ZM110.438,347.123v-2.47H193.6v2.47ZM108,340.765h-7.259V322.184H108ZM108.554,422l0-.059v-73.55a.712.712,0,0,1,.712-.712H195.07a.426.426,0,0,1,.289.111.335.335,0,0,0,.039.059.364.364,0,0,1,.089.247v74.257H124.456v-3.469a5.626,5.626,0,0,0,1.159-3.441,5.722,5.722,0,1,0-10.32,3.393v3.517h-6.331A.412.412,0,0,1,108.554,422Zm7.3-6.557a4.044,4.044,0,0,1,8.088,0,4.681,4.681,0,0,1-.039.54v7.794h-8.049Zm-.557,2.344a5.163,5.163,0,1,1,9.763-2.344,5.093,5.093,0,0,1-.6,2.42v-1.845a4.55,4.55,0,0,0,.042-.575,4.6,4.6,0,0,0-9.2,0Zm0,5.122v1.146a.271.271,0,0,0,.058.162h-4.914V422.91Zm9.105,1.308a.271.271,0,0,0,.058-.162V422.91H193.6v1.308Zm107.4-2.454h-8.565c-.557-.186-1.118-.377-1.676-.571v-3.581c3.778,1.316,7.655,2.455,11.539,3.39A1.484,1.484,0,0,1,231.8,421.764Zm-10.241-4.739v-2.34a121.661,121.661,0,0,0,11.727,3.43v2.364A121.221,121.221,0,0,1,221.562,417.025Zm11.727-.12v.641a121.244,121.244,0,0,1-11.727-3.447v-.632A121.845,121.845,0,0,0,233.289,416.905Zm-11.727-8.18v-2.346a121.591,121.591,0,0,0,11.727,3.43v2.363A121.426,121.426,0,0,1,221.562,408.725Zm11.727-.126v.641a121.376,121.376,0,0,1-11.727-3.447v-.627C225.47,406.519,229.412,407.676,233.289,408.6Zm-11.727-9.883v-2.339a121.549,121.549,0,0,0,11.727,3.429v2.363A121.435,121.435,0,0,1,221.562,398.716Zm11.727-.5v1.024a121.143,121.143,0,0,1-11.727-3.447v-1.009A121.855,121.855,0,0,0,233.289,398.213Zm-11.727-9.577V386.3a121.834,121.834,0,0,0,11.727,3.429v2.357A121.143,121.143,0,0,1,221.562,388.636Zm11.727-.5v1.025a121.426,121.426,0,0,1-11.727-3.447V384.7A121.8,121.8,0,0,0,233.289,388.132Zm-11.727-9.346v-2.337c3.846,1.372,7.787,2.636,11.727,3.761v2.349C229.36,381.436,225.418,380.167,221.562,378.786Zm11.727-.171v1.018c-3.942-1.128-7.884-2.4-11.727-3.773v-1.007C225.405,376.223,229.346,377.49,233.289,378.615Zm-11.727-8.779V367.5c3.968,1.525,7.91,3.12,11.727,4.747v2.326C229.47,372.95,225.528,371.358,221.562,369.836Zm11.727.814v.992c-3.819-1.624-7.761-3.216-11.727-4.737v-1C225.522,367.427,229.465,369.021,233.289,370.65Zm-11.727-11.284v-2.324c3.913,1.579,7.855,3.394,11.727,5.407v2.3C229.385,362.739,225.444,360.93,221.562,359.366Zm11.727,1.489v.965c-3.874-2-7.816-3.81-11.727-5.381v-.994C225.486,357.034,229.429,358.85,233.289,360.855Zm-11.727-11.87v-2.324c3.911,1.578,7.853,3.394,11.727,5.407v2.3C229.385,352.358,225.444,350.549,221.562,348.985Zm11.727,1.862v.592c-3.876-2-7.818-3.811-11.727-5.38v-.616C225.473,347.021,229.415,348.834,233.289,350.847Zm-11.727-10.168v-2.323c3.91,1.583,7.852,3.4,11.727,5.406v2.3C229.427,344.068,225.485,342.259,221.562,340.679Zm11.727,1.862v.593c-3.877-2-7.819-3.807-11.727-5.381v-.621C225.445,338.7,229.387,340.519,233.289,342.541Zm0-.621c-3.9-2.013-7.845-3.827-11.727-5.391v-3.558c3.883,1.572,7.825,3.389,11.727,5.411Zm-11.727-9.552V330.1h.15c3.892,1.588,7.785,3.39,11.577,5.356v2.3C229.385,335.741,225.444,333.932,221.562,332.368Zm11.727,1.868v.586c-3.321-1.712-6.717-3.3-10.122-4.727h1.441C227.5,331.348,230.415,332.741,233.289,334.236Zm0-2.65v2.026c-2.423-1.253-4.875-2.431-7.313-3.517H231.8A1.49,1.49,0,0,1,233.289,331.586Zm-12.284,9.179H196.043V320.71h24.962Zm-9.14-69.489v48.877H196.043v-.973h1.413a.279.279,0,0,0,.279-.278V271.276Zm-14.687,45.161v2.186H106.855v-2.186Zm0-.556H106.855v-63.87h90.323Zm-90.879-44.6V318.9a.278.278,0,0,0,.278.278H108v2.447h-7.259v-8.639a1.194,1.194,0,1,0-2.387,0v8.639H92.163V271.276ZM89.22,279.6v28.461H81.7V279.6Zm.556,0h1.83v28.461h-1.83ZM81.7,278.291h9.907v.751H81.7Zm0,31.07v-.745h9.907v.745Zm9.907,11.349v1.2a.279.279,0,0,0,.279.278h6.464v18.581H83.028V320.71ZM72.23,330.1h5.834c-.412.183-.823.363-1.237.553-1.994.907-4.038,1.9-6.082,2.963v-2.025A1.489,1.489,0,0,1,72.23,330.1Zm-1.485,4.141c2.121-1.1,4.244-2.14,6.314-3.082.791-.363,1.576-.71,2.367-1.059h1.442c-1.373.576-2.727,1.17-4.041,1.772-1.971.9-4.015,1.89-6.082,2.955Zm0,1.214c2.146-1.112,4.269-2.148,6.313-3.077,1.7-.78,3.474-1.546,5.264-2.278h.15v2.278c-1.874.752-3.772,1.564-5.645,2.42-2.109.968-4.153,1.962-6.082,2.96Zm6.313-.151c1.8-.821,3.615-1.6,5.414-2.324v3.554c-1.906.77-3.8,1.584-5.645,2.425-2,.913-4.04,1.911-6.082,2.964v-3.537C72.741,337.342,74.863,336.306,77.058,335.3Zm-6.313,7.242c2.119-1.1,4.243-2.134,6.313-3.081,1.765-.807,3.586-1.586,5.414-2.328v.615c-1.906.77-3.8,1.585-5.645,2.425-2.074.949-4.118,1.944-6.082,2.961Zm0,1.22c2.034-1.059,4.157-2.1,6.313-3.083,1.765-.806,3.586-1.586,5.414-2.328v2.324c-1.911.772-3.81,1.586-5.645,2.425-2.021.924-4.066,1.921-6.082,2.966Zm6.313-.156c1.761-.805,3.582-1.585,5.414-2.329v3.559c-1.911.772-3.81,1.586-5.645,2.425-2,.913-4.04,1.911-6.082,2.963v-3.529C72.837,345.605,74.959,344.565,77.058,343.605Zm-6.313,7.242c2.119-1.1,4.242-2.134,6.313-3.081,1.761-.805,3.582-1.585,5.414-2.329v.616c-1.906.77-3.8,1.585-5.645,2.425-2.07.947-4.114,1.942-6.082,2.961Zm0,1.22c2.038-1.062,4.161-2.1,6.313-3.083,1.765-.806,3.586-1.586,5.414-2.328v2.329c-1.879.753-3.776,1.565-5.645,2.419-2.023.926-4.067,1.923-6.082,2.966Zm6.313-.157c1.792-.819,3.611-1.6,5.414-2.323v5.251c-1.906.769-3.8,1.584-5.645,2.425-2.022.924-4.065,1.926-6.082,2.971V355C72.835,353.911,74.958,352.871,77.058,351.91Zm-6.313,8.945c2.091-1.089,4.214-2.127,6.313-3.087,1.765-.806,3.586-1.586,5.414-2.328v.994c-1.911.772-3.81,1.586-5.645,2.425-2,.913-4.04,1.908-6.082,2.961Zm0,1.593c2.119-1.1,4.243-2.136,6.313-3.083,1.761-.805,3.582-1.585,5.414-2.328v2.329c-1.911.772-3.81,1.586-5.645,2.425-2.07.947-4.114,1.942-6.082,2.96Zm6.313-.151c1.761-.805,3.582-1.585,5.414-2.329V365.3c-1.869.718-3.763,1.463-5.634,2.218-2.114.853-4.159,1.7-6.093,2.525v-4.667C72.783,364.318,74.906,363.281,77.058,362.3Zm-6.313,8.353c1.994-.851,4.113-1.73,6.3-2.613,1.8-.727,3.624-1.444,5.425-2.138v.994c-1.873.721-3.767,1.466-5.635,2.22-2.228.9-4.226,1.734-6.092,2.529Zm0,1.6c1.927-.822,3.989-1.679,6.3-2.618,1.8-.726,3.62-1.443,5.425-2.138v2.34c-1.869.719-3.763,1.464-5.634,2.219-2.112.852-4.16,1.7-6.093,2.524Zm6.3.319c1.8-.728,3.624-1.445,5.425-2.138v3.835c-1.819.652-3.7,1.293-5.616,1.908-2.036.659-4.089,1.283-6.111,1.862v-2.854C72.739,374.328,74.857,373.449,77.047,372.566Zm-6.3,6.049c2.077-.593,4.19-1.237,6.283-1.915,1.85-.595,3.676-1.217,5.444-1.847v1.007c-1.813.649-3.7,1.29-5.616,1.908-2.041.661-4.095,1.288-6.111,1.865Zm0,1.595c2.071-.591,4.183-1.233,6.283-1.913,1.857-.6,3.682-1.22,5.444-1.848v2.342c-1.867.662-3.754,1.3-5.616,1.9-1.943.634-3.946,1.246-6.111,1.865Zm6.283,1.013c1.8-.583,3.633-1.2,5.444-1.843v4.733c-1.83.639-3.715,1.247-5.609,1.808-2.01.594-4.067,1.141-6.118,1.634v-4.418C72.974,382.5,75.034,381.874,77.028,381.223Zm-6.283,6.909c2.1-.5,4.214-1.068,6.276-1.677,1.84-.545,3.67-1.137,5.451-1.755v1.006c-1.8.633-3.687,1.243-5.609,1.812-2.01.594-4.066,1.144-6.118,1.638Zm0,1.593c2.1-.5,4.214-1.065,6.276-1.674,1.866-.552,3.695-1.143,5.451-1.756v2.342c-1.8.635-3.688,1.244-5.609,1.812-2.038.6-4.094,1.152-6.118,1.634Zm6.276,1.258c1.865-.552,3.695-1.143,5.451-1.757V394.2c-1.8.633-3.687,1.243-5.609,1.812-2.03.6-4.086,1.145-6.118,1.63v-4.985C72.82,392.16,74.93,391.6,77.021,390.983Zm-6.276,7.23c2.083-.5,4.194-1.057,6.276-1.672,1.866-.553,3.695-1.144,5.451-1.757v1.006c-1.83.639-3.715,1.247-5.609,1.808-2.012.6-4.069,1.151-6.118,1.64Zm0,1.593c2.1-.5,4.213-1.06,6.276-1.674,1.84-.545,3.67-1.137,5.451-1.755v2.341c-1.794.631-3.678,1.24-5.609,1.812-2,.591-4.056,1.142-6.118,1.639Zm6.276,1.257c1.874-.554,3.7-1.145,5.451-1.756v5.269c-1.8.633-3.687,1.243-5.609,1.812-2.092.618-4.147,1.167-6.118,1.637v-5.287C72.86,402.231,74.971,401.669,77.021,401.063ZM70.745,408.6c2.019-.479,4.13-1.044,6.276-1.678,1.866-.552,3.695-1.143,5.451-1.756v.629c-1.8.634-3.688,1.243-5.609,1.812-2.035.6-4.092,1.151-6.118,1.635Zm0,1.21c2.078-.493,4.187-1.052,6.276-1.67,1.865-.551,3.695-1.142,5.451-1.756v2.342c-1.83.638-3.715,1.247-5.609,1.808-2.01.593-4.066,1.144-6.118,1.638Zm6.276,1.257c1.84-.545,3.67-1.137,5.451-1.755v3.571c-1.794.63-3.678,1.24-5.609,1.811-2,.591-4.056,1.138-6.118,1.635V412.74C72.849,412.236,74.959,411.675,77.021,411.066Zm-6.276,5.839c2.116-.508,4.226-1.072,6.276-1.678,1.874-.555,3.7-1.146,5.451-1.756v.629c-1.8.633-3.686,1.243-5.608,1.812-2.153.631-4.159,1.166-6.119,1.634Zm0,1.211c2.011-.477,4.065-1.023,6.276-1.67,1.866-.553,3.695-1.144,5.451-1.757v2.341c-1.83.639-3.715,1.247-5.609,1.808-1.98.59-4.032,1.141-6.118,1.641ZM70.936,421c2.065-.5,4.112-1.043,6.085-1.63,1.84-.545,3.67-1.137,5.451-1.755V421.2l-.34.115q-.669.228-1.336.451H72.23A1.47,1.47,0,0,1,70.936,421Zm12.092,1.319h25.047a.959.959,0,0,0,.888.589h.919v1.308h-.919a.969.969,0,0,0-.968.967v6.192c0,.354.007.708.014,1.063H83.028Zm50.54,61.533a.276.276,0,0,0-.121-.028h-.189a77.773,77.773,0,0,1-10.577-.726,16.51,16.51,0,0,1-13.688-11.992l-7.2-26.192a6.4,6.4,0,0,1,6.169-8.1h.244a73.909,73.909,0,0,0,3.424,17.465l2.96,9.107a18.839,18.839,0,0,0,18.139,12.792H171.31a18.834,18.834,0,0,0,18.139-12.792l2.959-9.107a74.428,74.428,0,0,0,3.429-17.465h.24a6.4,6.4,0,0,1,6.168,8.1l-7.205,26.192A16.522,16.522,0,0,1,181.352,483.1a77.813,77.813,0,0,1-10.582.726h-6.008a.251.251,0,0,0-.112.028Z" transform="translate(-58.904 -15.875)" fill="#ccc" stroke="#1d1d1b" stroke-miterlimit="10" stroke-width="0.25"/>
    <path d="M111.345,308.232a4.56,4.56,0,0,0,5.591,4.449,4.382,4.382,0,0,0,1.441-.611,4.563,4.563,0,1,0-7.032-3.838Zm5.467-3.9a4,4,0,0,1,1.262,7.274,3.85,3.85,0,0,1-1.263.535,3.977,3.977,0,0,1-3.067-.536h0a4.006,4.006,0,0,1,2.169-7.377A3.935,3.935,0,0,1,116.812,304.33Z" transform="translate(-58.904 -15.875)" fill="#ccc" stroke="#1d1d1b" stroke-miterlimit="10" stroke-width="0.25"/>
    <path d="M143.416,367.2a6.139,6.139,0,1,0-6.136,6.142A6.143,6.143,0,0,0,143.416,367.2Zm-11.721,0a5.582,5.582,0,1,1,5.585,5.586A5.588,5.588,0,0,1,131.7,367.2Z" transform="translate(-58.904 -15.875)" fill="#ccc" stroke="#1d1d1b" stroke-miterlimit="10" stroke-width="0.25"/>
    <path d="M142.031,367.2a4.751,4.751,0,1,0-4.751,4.751A4.757,4.757,0,0,0,142.031,367.2Zm-8.946,0a4.195,4.195,0,1,1,4.195,4.195A4.2,4.2,0,0,1,133.085,367.2Z" transform="translate(-58.904 -15.875)" fill="#ccc" stroke="#1d1d1b" stroke-miterlimit="10" stroke-width="0.25"/>
    <path d="M141.391,367.2a4.111,4.111,0,1,0-4.111,4.111A4.115,4.115,0,0,0,141.391,367.2Zm-7.666,0a3.555,3.555,0,1,1,3.555,3.555A3.559,3.559,0,0,1,133.725,367.2Z" transform="translate(-58.904 -15.875)" fill="#ccc" stroke="#1d1d1b" stroke-miterlimit="10" stroke-width="0.25"/>
  </g>
</svg>
